<svg width="69" height="59" viewBox="0 0 69 59" fill="none" xmlns="http://www.w3.org/2000/svg">
<path d="M64.2227 3.47176L55.7627 12.8356L54.5427 10.8616L62.6927 0L64.2227 3.47176Z" fill="#FDC305"/>
<path d="M61.6531 17.1207L67.1931 13.0439L66.4131 9.33406L61.0131 14.1052L61.6531 17.1207Z" fill="#FDC305"/>
<path d="M58.923 48.9716L65.053 52.1259L68.063 49.8048L61.373 47.077L58.923 48.9716Z" fill="#FDC305"/>
<path d="M0 3.33288L3.07 0L12.36 8.92737L11.14 11.189L0 3.33288Z" fill="#FDC305"/>
<path d="M10.1 14.1047L5.4 11L3 14.8388L8.15 17.2194L10.1 14.1047Z" fill="#FDC305"/>
<path d="M12.91 52.1259L8.35999 55.4489L11.16 59L15.18 55.0124L12.91 52.1259Z" fill="#FDC305"/>
</svg>
